<svg xmlns="http://www.w3.org/2000/svg" width="927.257" height="180.21" viewBox="0 0 927.257 180.21">
  <g id="learnupon" transform="translate(-0.005 0.04)">
    <path id="Path_8166" data-name="Path 8166" d="M-836.73-871.71c0,9.27.06,18.54,0,27.81-.16,19.06-10.07,31.82-28.79,34.82a61.148,61.148,0,0,1-24-1.33c-14.74-3.75-23.47-15.76-23.67-30.94-.27-21.14,0-42.28-.14-63.42,0-3.91,1.59-5.25,5.27-5.07a84.5,84.5,0,0,0,9.28,0c3.84-.23,5.08,1.38,5.06,5.17-.14,19.19-.08,38.37-.06,57.56,0,16.32,11.88,24.38,27.37,18.62,6.65-2.48,9.93-7.45,10-15.7.07-19.35,0-38.7,0-58,0-7.56,0-7.62,7.58-7.55,13.66.13,12.08-1.91,12.16,12.24C-836.69-888.94-836.73-880.32-836.73-871.71Z" transform="translate(1505.34 950.77)" fill="#fbfbfb"/>
    <path id="Path_8167" data-name="Path 8167" d="M-801.31-817.26v29.13c0,6.45-.27,6.76-6.48,6.72-13.71-.08-11.88,1.53-11.92-12-.07-26.66,0-53.32,0-80,0-7.91,0-7.91,7.7-7.92h2.44c7.3,0,7.3,0,9,6.61,18.41-12.13,35.71-11,47.94,3.16,12.88,14.91,12.47,38.3-.74,52.72C-762.84-808.47-783.53-801.72-801.31-817.26Zm39.62-28.2c.05-11.73-8.14-20.22-19.67-20.38-11.37-.16-19.88,8.41-19.95,20.09s8.09,20.23,19.65,20.28S-761.74-833.74-761.69-845.46Z" transform="translate(1505.34 950.77)" fill="#fbfbfb"/>
    <path id="Path_8168" data-name="Path 8168" d="M-1082.69-874.31c1.06-6.94,1.06-7,8.09-7,12.3,0,10.67-.94,10.71,10.7.06,18.21-.1,36.43.1,54.64,0,4.41-1.25,6.43-5.79,6a32.212,32.212,0,0,0-5.38,0c-4.66.3-8.55-.21-6.72-8.34-8.63,8.55-17.63,11.21-27.75,10-10.36-1.21-18.3-6.48-24.08-15-10.8-15.88-8.46-37.93,5.27-50.94C-1115.7-886.06-1098.92-886.2-1082.69-874.31Zm.49,28.58c-.08-11.72-8.48-20.2-19.93-20.11s-19.77,8.65-19.72,20.36,8.41,20.09,20,20S-1082.12-833.93-1082.2-845.73Z" transform="translate(1505.34 950.77)" fill="#fbfbfb"/>
    <path id="Path_8169" data-name="Path 8169" d="M-1203.25-837.94c1.23,5.57,4.19,8.94,8.48,10.87,8.23,3.71,16.54,3.83,24.1-1.59,3.07-2.2,5.31-2,8.35-.22,9.81,5.67,10,8.69.33,15-14.28,9.32-36.65,7.58-49.22-3.83-12.19-11.06-15.32-30.9-7.31-46.25s26.77-22.93,43.87-17.77A36.76,36.76,0,0,1-1149-843.08c-.43,4.41-3.06,5.17-6.7,5.16h-41.52Zm35.38-14.53c-1.58-9-8.62-14.55-17.74-14.36-9.48.2-16.41,5.76-17.62,14.36Z" transform="translate(1505.34 950.77)" fill="#fbfbfb"/>
    <path id="Path_8170" data-name="Path 8170" d="M-696.22-808c-21.4,0-37.7-16.46-37.58-37.86a37.22,37.22,0,0,1,11.024-26.574A37.22,37.22,0,0,1-696.1-883.21c21.3,0,38,16.61,37.91,37.72S-674.76-808-696.22-808Zm.21-57.11c-11.3,0-19.22,7.93-19.29,19.33-.08,11.61,8,20,19.29,20,11,0,19.29-8.31,19.36-19.47.07-11.75-7.92-19.91-19.35-19.91Z" transform="translate(1505.34 950.77)" fill="#fbfbfb"/>
    <path id="Path_8171" data-name="Path 8171" d="M-626-874.54c7.46-7.78,16.21-9.82,25.9-8.2,12.94,2.16,21.29,12.06,21.79,26.72.46,13.81.08,27.65.16,41.47,0,3-1.23,4.58-4.31,4.56H-583c-16.38-.13-13.31,1.8-13.54-12.74-.15-8.94,0-17.89,0-26.83-.09-11-4.89-16.5-14.18-16.56-9.74-.07-15.61,5.81-15.85,16.45-.24,11.06,0,22.12-.07,33.18,0,6.13-.35,6.51-6.23,6.49-13.9,0-12.22,1.42-12.26-12.22-.06-17.56,0-35.13,0-52.69,0-6,.39-6.32,6.43-6.36h5.37C-627.33-881.24-627.33-881.24-626-874.54Z" transform="translate(1505.34 950.77)" fill="#fbfbfb"/>
    <path id="Path_8172" data-name="Path 8172" d="M-977.34-873.81c5.85-6.6,12.08-9,19.18-9.38,16.43-.9,28.37,9.86,28.89,26.78.43,14,.06,28,.14,41.95,0,3.05-1.18,4.51-4.31,4.49-16.91-.13-13.79,1.81-14-12.81-.14-9.27,0-18.54,0-27.8-.08-9.72-4.74-15.13-13.15-15.52-9.63-.45-16.05,4.77-16.51,14.55-.54,11.68-.24,23.4-.32,35.11,0,6-.44,6.48-6.32,6.45-13.41-.08-12.14,1.61-12.16-11.84q-.06-26.08,0-52.19c0-7,.25-7.22,7-7.24a40.324,40.324,0,0,0,4.4,0C-979.95-881.82-976.8-880.64-977.34-873.81Z" transform="translate(1505.34 950.77)" fill="#fbfbfb"/>
    <path id="Path_8173" data-name="Path 8173" d="M-1266.41-828.7h30.75c7.52,0,7.54,0,7.52,7.63,0,12.06,1.16,11.08-11,11.09-13.68,0-27.36-.12-41,.06-4.43.06-6-1.48-5.94-6q.24-43.9,0-87.8c0-4.71,1.54-6.31,6.22-6.2,15.93.37,13.33-1.9,13.42,13.44C-1266.31-874.17-1266.41-851.91-1266.41-828.7Z" transform="translate(1505.34 950.77)" fill="#fbfbfb"/>
    <path id="Path_8174" data-name="Path 8174" d="M-1028.06-870.61c4.1-6.65,9.15-10.16,15.64-11.56,3.93-.85,6,.41,5.79,4.66-.06,1.13,0,2.27,0,3.41-.1,3.24.88,7.23-.67,9.49-1.38,2-5.54,2.2-8.52,3.06-8,2.31-12.48,8.15-12.63,17-.16,9.43-.21,18.86,0,28.29.11,4.52-1.24,6.44-6.07,6.33-14.24-.33-12.42,1.44-12.47-12.58-.07-17.55.1-35.11-.1-52.67,0-4.7,1.6-6.67,6.26-6.13a22.075,22.075,0,0,0,2.44,0C-1029.08-881.26-1029.08-881.26-1028.06-870.61Z" transform="translate(1505.34 950.77)" fill="#fbfbfb"/>
    <path id="Path_8175" data-name="Path 8175" d="M-1429.5-950.74c18.26,0,36.51-.08,54.77,0a48.43,48.43,0,0,1,34.31,14,48.6,48.6,0,0,1,14.55,27.5,45,45,0,0,1,.66,7.51c0,27.32.12,54.64,0,82-.06,13-4.89,24.29-13.86,33.72a48,48,0,0,1-25.83,14.33,50.842,50.842,0,0,1-9.68,1c-27.1.08-54.21.13-81.31,0-13.3-.06-24.78-4.95-34.34-14.2a48.77,48.77,0,0,1-14.33-27,45.358,45.358,0,0,1-.74-8q-.07-55.55,0-111.09a19.849,19.849,0,0,1,17.4-19.68,20,20,0,0,1,2.57-.16Zm74.35,55.8h.05v-16a10,10,0,0,0-3.775-7.621,10,10,0,0,0-8.276-1.959,9.9,9.9,0,0,0-7.91,10q0,14.76,0,29.51a24.825,24.825,0,0,1-.3,3.75,20.081,20.081,0,0,1-8.858,13.486,20.08,20.08,0,0,1-15.922,2.614,20,20,0,0,1-15.1-19.62v-29.78a10,10,0,0,0-4.051-8.192,10,10,0,0,0-9.019-1.478,10,10,0,0,0-6.93,9.64c0,9.93-.07,19.86,0,29.78a44.322,44.322,0,0,0,.9,8.68,40.069,40.069,0,0,0,18.358,25.712A40.07,40.07,0,0,0-1384.7-842a39.93,39.93,0,0,0,29.5-36.61C-1354.9-884-1355.15-889.5-1355.15-894.94Zm-120.21,35.13v19.45a38.73,38.73,0,0,0,.34,5.05,39.15,39.15,0,0,0,14.5,25.85,39.36,39.36,0,0,0,25.25,9h14.76c2.08,0,4.18,0,6.26-.12a9.94,9.94,0,0,0,9-9.22,10,10,0,0,0-2.715-7.545,10,10,0,0,0-7.385-3.125h-19.54a23,23,0,0,1-3.21-.21,20,20,0,0,1-17.3-19.93q0-20,0-40.1a9.93,9.93,0,0,0-2.933-7.047,9.93,9.93,0,0,0-7.067-2.883,9.93,9.93,0,0,0-7.07,2.887,9.93,9.93,0,0,0-2.93,7.053Z" transform="translate(1505.34 950.77)" fill="#fbfbfb"/>
  </g>
</svg>
