<svg xmlns="http://www.w3.org/2000/svg" width="24" height="24" viewBox="0 0 24 24">
  <g id="sideBar_settings-0" transform="translate(-145 -913)">
    <path id="Path_1494" data-name="Path 1494" d="M165.254,926.5H168.5v-3h-3.247a11.8,11.8,0,0,0-1-2.922l2.3-2.295-2.829-2.829-2.3,2.3a11.728,11.728,0,0,0-2.92-1V913.5h-3v3.248a11.735,11.735,0,0,0-2.921,1l-2.3-2.3-2.829,2.829,2.3,2.3a11.821,11.821,0,0,0-1,2.921H145.5v3h3.246a11.821,11.821,0,0,0,1,2.921l-2.3,2.3,2.829,2.828,2.3-2.3a11.764,11.764,0,0,0,2.922,1.006V936.5h3v-3.246a11.8,11.8,0,0,0,2.92-1l2.3,2.3,2.828-2.828-2.3-2.3A11.821,11.821,0,0,0,165.254,926.5Z" fill="none" stroke="#fbfbfb" stroke-linecap="round" stroke-linejoin="round" stroke-width="1"/>
    <circle id="Ellipse_240" data-name="Ellipse 240" cx="4.5" cy="4.5" r="4.5" transform="translate(152.5 920.5)" fill="none" stroke="#fbfbfb" stroke-linecap="round" stroke-linejoin="round" stroke-width="1"/>
  </g>
</svg>
