<svg xmlns="http://www.w3.org/2000/svg" width="24" height="21" viewBox="0 0 24 21">
  <g id="sideBar_users-0" transform="translate(-433 -2307)">
    <path id="Path_1195" data-name="Path 1195" d="M433.5,2314.5v3c0,.825.175,1.5,1,1.5v4.5h3V2319c.824,0,1-.676,1-1.5v-3Z" fill="none" stroke="#fbfbfb" stroke-linejoin="round" stroke-width="1"/>
    <path id="Path_1196" data-name="Path 1196" d="M451.5,2314.5v3c0,.825.175,1.5,1,1.5v4.5h3V2319c.824,0,1-.676,1-1.5v-3Z" fill="none" stroke="#fbfbfb" stroke-linejoin="round" stroke-width="1"/>
    <path id="Path_1197" data-name="Path 1197" d="M441.5,2314.5h7v5a2.006,2.006,0,0,1-2,2v6h-3v-6a2.005,2.005,0,0,1-2-2Z" fill="none" stroke="#fbfbfb" stroke-linejoin="round" stroke-width="1"/>
    <path id="Path_1198" data-name="Path 1198" d="M437.5,2311a1.5,1.5,0,0,1-1.5,1.5h0a1.5,1.5,0,0,1-1.5-1.5h0a1.5,1.5,0,0,1,1.5-1.5h0a1.5,1.5,0,0,1,1.5,1.5Z" fill="none" stroke="#fbfbfb" stroke-linejoin="round" stroke-width="1"/>
    <path id="Path_1199" data-name="Path 1199" d="M455.5,2311a1.5,1.5,0,0,1-1.5,1.5h0a1.5,1.5,0,0,1-1.5-1.5h0a1.5,1.5,0,0,1,1.5-1.5h0a1.5,1.5,0,0,1,1.5,1.5Z" fill="none" stroke="#fbfbfb" stroke-linejoin="round" stroke-width="1"/>
    <path id="Path_1200" data-name="Path 1200" d="M447.5,2310a2.5,2.5,0,0,1-2.5,2.5h0a2.5,2.5,0,0,1-2.5-2.5h0a2.5,2.5,0,0,1,2.5-2.5h0a2.5,2.5,0,0,1,2.5,2.5Z" fill="none" stroke="#fbfbfb" stroke-linejoin="round" stroke-width="1"/>
  </g>
</svg>
