<svg xmlns="http://www.w3.org/2000/svg" width="24" height="23.5" viewBox="0 0 24 23.5">
  <g id="sideBar_chat-1" transform="translate(-193 -3697.5)">
    <path id="Path_385" data-name="Path 385" d="M200.44,3711.814a9.217,9.217,0,0,1-1.44-.314l-5,2,2-3.5a6.532,6.532,0,0,1-2.5-5.065c0-3.83,3.806-6.935,8.5-6.935s8.5,3.1,8.5,6.935" fill="none" stroke="#3679b4" stroke-linecap="round" stroke-linejoin="round" stroke-width="1"/>
    <path id="Path_386" data-name="Path 386" d="M202.5,3713.5c0,4.288,5,7.5,9.5,5.5l4,1.5-1.5-3a4.992,4.992,0,0,0,2-4c0-3.154-3.134-6-7-6S202.5,3710.346,202.5,3713.5Z" fill="none" stroke="#3679b4" stroke-linecap="round" stroke-linejoin="round" stroke-width="1"/>
  </g>
</svg>
