<svg xmlns="http://www.w3.org/2000/svg" width="20" height="21.5" viewBox="0 0 20 21.5">
  <g id="table_users-0" transform="translate(-51 -2738.5)">
    <path id="Path_461" data-name="Path 461" d="M58.5,2750.2v2.8l-5.009,1.789a3,3,0,0,0-1.991,2.825v1.886h19v-1.886a3,3,0,0,0-1.991-2.825L63.5,2753v-2.8" fill="none" stroke="#aaa" stroke-linejoin="round" stroke-width="1"/>
    <ellipse id="Ellipse_108" data-name="Ellipse 108" cx="5" cy="6" rx="5" ry="6" transform="translate(56 2739)" fill="none" stroke="#aaa" stroke-linejoin="round" stroke-width="1"/>
    <path id="Path_462" data-name="Path 462" d="M65.953,2744.453c-.168.021-.284.014-.453.047-1.7.328-2.8-.289-3.734-1.93A4.63,4.63,0,0,1,58,2744.5a4.012,4.012,0,0,1-1.935-.466" fill="none" stroke="#aaa" stroke-linejoin="round" stroke-width="1"/>
  </g>
</svg>
